# File created by Blade
# Date/Time:  Wed Jan 21 14:28:11 2015
# Frame Rate: 120.000 fps
#------------------------------------------------------
:FULLY-SPECIFIED
:DEGREES
547
root 18.743277 35.501649 -21.183606 -170.824342 -2.316931 -178.746513
Spine -17.900140 -1.365831 1.527712
Head 8.347791 -0.212403 -1.130650
LeftShoulder -13.126731 -37.769812 24.790928
LeftArm 4.869560 7.409359 -1.268626
LeftForeArm 21.332703 -0.000000 -2.102438
LeftHand -7.340152 -0.000000 -4.828651
LeftHandThumb1 -26.253704 0.000000 33.147579
RightShoulder -12.313497 1.082648 -14.457912
RightArm 7.915741 33.019581 3.746036
RightForeArm -44.973863 -0.000000 4.525874
RightHand -5.906686 -0.000000 15.713006
RightHandThumb1 -24.326973 -0.000000 -32.862282
LeftUpLeg -0.877264 9.208738 1.849507
LeftLeg -6.989242 -0.000000 0.000000
LeftFoot -19.692812 27.349910 -12.211208
LeftToeBase 27.192971 -0.000000 -0.000000
RightUpLeg -2.489124 -12.329542 0.063220
RightLeg -3.833271 -0.000000 0.000000
RightFoot -19.655357 -21.853936 16.346452
RightToeBase 25.488793 -0.000000 -0.000000
548
root 18.739691 35.500532 -21.184013 -170.835338 -2.316590 -178.757196
Spine -17.865355 -1.326544 1.512744
Head 8.372840 -0.237085 -1.175955
LeftShoulder -13.162565 -37.730082 24.764111
LeftArm 4.798230 7.341173 -1.371071
LeftForeArm 21.265200 -0.000000 -2.198182
LeftHand -7.467706 -0.000000 -5.179780
LeftHandThumb1 -26.253704 0.000000 33.147579
RightShoulder -12.330699 1.109656 -14.436082
RightArm 7.857350 33.117570 3.811890
RightForeArm -44.964619 -0.000000 4.489999
RightHand -5.882955 0.000000 15.800231
RightHandThumb1 -24.326973 -0.000000 -32.862282
LeftUpLeg -0.858139 9.192237 1.836672
LeftLeg -6.999712 -0.000000 0.000000
LeftFoot -19.691885 27.360354 -12.202388
LeftToeBase 27.184275 -0.000000 -0.000000
RightUpLeg -2.475782 -12.314389 0.042481
RightLeg -3.831657 -0.000000 0.000000
RightFoot -19.656463 -21.864549 16.320203
RightToeBase 25.462094 -0.000000 -0.000000
549
root 18.736459 35.500186 -21.185392 -170.823011 -2.314725 -178.754880
Spine -17.847219 -1.274384 1.515087
Head 8.342617 -0.247735 -1.204027
LeftShoulder -13.240168 -37.722139 24.760045
LeftArm 4.734601 7.265064 -1.487178
LeftForeArm 21.236091 -0.000000 -2.263665
LeftHand -7.649440 -0.000000 -5.563980
LeftHandThumb1 -26.253704 0.000000 33.147579
RightShoulder -12.395509 1.141080 -14.428747
RightArm 7.854996 33.227041 3.918533
RightForeArm -44.969551 -0.000000 4.452497
RightHand -5.838528 -0.000000 15.772941
RightHandThumb1 -24.326973 -0.000000 -32.862282
LeftUpLeg -0.863580 9.185878 1.833005
LeftLeg -7.008289 -0.000000 0.000000
LeftFoot -19.688569 27.374850 -12.194834
LeftToeBase 27.152553 -0.000000 -0.000000
RightUpLeg -2.478801 -12.312637 0.041791
RightLeg -3.843388 -0.000000 0.000000
RightFoot -19.648998 -21.866065 16.380654
RightToeBase 25.362806 -0.000000 -0.000000
550
root 18.732964 35.499653 -21.187233 -170.818100 -2.312430 -178.760038
Spine -17.839481 -1.228492 1.508020
Head 8.397527 -0.254522 -1.265729
LeftShoulder -13.271989 -37.810070 24.755665
LeftArm 4.619191 7.356560 -1.580260
LeftForeArm 21.136401 -0.000000 -2.303417
LeftHand -7.749331 0.000000 -5.875853
LeftHandThumb1 -26.253704 0.000000 33.147579
RightShoulder -12.419537 1.180158 -14.420622
RightArm 7.824710 33.287385 4.002410
RightForeArm -44.950848 -0.000000 4.396061
RightHand -5.778824 -0.000000 15.844731
RightHandThumb1 -24.326973 -0.000000 -32.862282
LeftUpLeg -0.859192 9.165943 1.824838
LeftLeg -7.015429 -0.000000 0.000000
LeftFoot -19.702958 27.376627 -12.226174
LeftToeBase 27.152027 -0.000000 -0.000000
RightUpLeg -2.493501 -12.353196 0.034300
RightLeg -3.823975 -0.000000 0.000000
RightFoot -19.662799 -21.826121 16.304102
RightToeBase 25.571014 -0.000000 -0.000000
551
root 18.729857 35.498589 -21.188628 -170.813481 -2.318444 -178.769686
Spine -17.833930 -1.174177 1.480942
Head 8.436468 -0.261941 -1.276924
LeftShoulder -13.269967 -37.885680 24.763282
LeftArm 4.485435 7.459095 -1.710397
LeftForeArm 20.940592 -0.000000 -2.309050
LeftHand -7.806425 -0.000000 -6.164822
LeftHandThumb1 -26.253704 0.000000 33.147579
RightShoulder -12.395600 1.312796 -14.410713
RightArm 7.653063 33.260772 4.002395
RightForeArm -44.923547 -0.000000 4.431671
RightHand -5.766130 -0.000000 16.113689
RightHandThumb1 -24.326973 -0.000000 -32.862282
LeftUpLeg -0.859788 9.142357 1.813732
LeftLeg -7.015248 -0.000000 0.000000
LeftFoot -19.708808 27.377488 -12.221142
LeftToeBase 27.125960 -0.000000 -0.000000
RightUpLeg -2.484672 -12.337054 0.018862
RightLeg -3.841103 -0.000000 0.000000
RightFoot -19.663220 -21.850947 16.305733
RightToeBase 25.518118 -0.000000 -0.000000
552
root 18.726576 35.497532 -21.190591 -170.813123 -2.322872 -178.770008
Spine -17.841162 -1.129375 1.477995
Head 8.520030 -0.297911 -1.321980
LeftShoulder -13.295368 -37.903548 24.761594
LeftArm 4.398907 7.422187 -1.852794
LeftForeArm 20.908305 0.000000 -2.327852
LeftHand -7.787214 -0.000000 -6.417238
LeftHandThumb1 -26.253704 0.000000 33.147579
RightShoulder -12.407254 1.287576 -14.402133
RightArm 7.626756 33.390228 4.108005
RightForeArm -44.993056 -0.000000 4.416876
RightHand -5.695867 -0.000000 15.980439
RightHandThumb1 -24.326973 -0.000000 -32.862282
LeftUpLeg -0.852612 9.134797 1.810947
LeftLeg -7.022543 -0.000000 0.000000
LeftFoot -19.713645 27.384826 -12.205883
LeftToeBase 27.147076 -0.000000 -0.000000
RightUpLeg -2.470992 -12.316620 0.010361
RightLeg -3.857716 -0.000000 0.000000
RightFoot -19.665418 -21.883225 16.288384
RightToeBase 25.523988 -0.000000 -0.000000
553
root 18.723199 35.497672 -21.193039 -170.811227 -2.330584 -178.769248
Spine -17.845294 -1.096882 1.478374
Head 8.572779 -0.313528 -1.340428
LeftShoulder -13.354323 -37.892565 24.738412
LeftArm 4.380476 7.352047 -1.971785
LeftForeArm 20.907042 -0.000000 -2.373211
LeftHand -7.833930 -0.000000 -6.621146
LeftHandThumb1 -26.253704 0.000000 33.147579
RightShoulder -12.380451 1.319554 -14.384769
RightArm 7.560127 33.552355 4.181756
RightForeArm -45.013291 -0.000000 4.407148
RightHand -5.758472 -0.000000 15.969746
RightHandThumb1 -24.326973 -0.000000 -32.862282
LeftUpLeg -0.848993 9.117391 1.808815
LeftLeg -7.025399 -0.000000 0.000000
LeftFoot -19.717859 27.389463 -12.208745
LeftToeBase 27.156337 -0.000000 -0.000000
RightUpLeg -2.469657 -12.311455 0.005484
RightLeg -3.850752 -0.000000 0.000000
RightFoot -19.669787 -21.869330 16.379170
RightToeBase 25.424234 -0.000000 -0.000000
554
root 18.719704 35.496670 -21.195100 -170.804548 -2.340457 -178.777389
Spine -17.863834 -1.052841 1.461333
Head 8.649552 -0.355788 -1.355043
LeftShoulder -13.384007 -37.850865 24.703226
LeftArm 4.367213 7.333551 -2.088058
LeftForeArm 20.871505 0.000000 -2.379295
LeftHand -7.891386 -0.000000 -6.814458
LeftHandThumb1 -26.253704 0.000000 33.147579
RightShoulder -12.372274 1.290188 -14.364586
RightArm 7.507213 33.675347 4.256363
RightForeArm -44.966397 -0.000000 4.409197
RightHand -5.751473 -0.000000 15.987395
RightHandThumb1 -24.326973 -0.000000 -32.862282
LeftUpLeg -0.851606 9.103100 1.796847
LeftLeg -7.027143 -0.000000 0.000000
LeftFoot -19.725819 27.387450 -12.210453
LeftToeBase 27.149574 -0.000000 -0.000000
RightUpLeg -2.469012 -12.307693 -0.008928
RightLeg -3.854864 -0.000000 0.000000
RightFoot -19.682939 -21.897769 16.307662
RightToeBase 25.541806 -0.000000 -0.000000
555
root 18.715626 35.496648 -21.197894 -170.812627 -2.352426 -178.786774
Spine -17.869837 -1.036653 1.457049
Head 8.736874 -0.362830 -1.380511
LeftShoulder -13.439993 -37.806984 24.663854
LeftArm 4.378139 7.285766 -2.189267
LeftForeArm 20.915799 0.000000 -2.394047
LeftHand -7.977293 -0.000000 -6.919825
LeftHandThumb1 -26.253704 0.000000 33.147579
RightShoulder -12.333734 1.296460 -14.342824
RightArm 7.451971 33.775333 4.313050
RightForeArm -44.964130 -0.000000 4.414440
RightHand -5.796065 -0.000000 15.895815
RightHandThumb1 -24.326973 -0.000000 -32.862282
LeftUpLeg -0.837588 9.091691 1.784405
LeftLeg -7.033107 -0.000000 0.000000
LeftFoot -19.732208 27.382553 -12.226459
LeftToeBase 27.140016 -0.000000 -0.000000
RightUpLeg -2.452715 -12.320729 -0.024175
RightLeg -3.859286 -0.000000 0.000000
RightFoot -19.680405 -21.907104 16.294898
RightToeBase 25.560248 -0.000000 -0.000000
